<svg xmlns="http://www.w3.org/2000/svg" version="1.0" preserveAspectRatio="xMidYMid meet" viewBox="0.01 0 475.94 524.87">

<g transform="translate(0.000000,525.000000) scale(0.100000,-0.100000)" fill="#000000" stroke="none">
<path d="M128 5228 c-26 -40 -86 -212 -98 -279 -6 -35 -15 -89 -21 -120 -12 -72 -12 -327 1 -381 5 -24 15 -77 21 -118 16 -101 86 -314 142 -430 121 -253 220 -385 518 -693 439 -454 1564 -1577 1580 -1577 9 0 37 18 62 40 25 22 49 40 54 40 12 0 63 -53 63 -66 0 -5 -38 -47 -85 -94 -47 -47 -85 -92 -85 -100 0 -17 129 -150 145 -150 6 0 240 229 520 510 l510 510 -75 75 c-41 41 -79 75 -84 75 -5 0 -29 -21 -55 -47 -25 -25 -67 -66 -93 -90 l-47 -44 -38 34 -38 35 54 57 54 57 -134 134 -134 134 -117 -16 c-65 -9 -125 -13 -134 -10 -14 5 -15 21 -9 120 8 131 10 128 -80 114 -32 -5 -80 -8 -105 -6 l-45 3 3 60 c1 33 5 86 8 118 l6 57 -64 0 c-34 -1 -83 -5 -108 -10 -59 -11 -84 2 -76 38 3 15 9 64 12 108 8 99 8 99 -125 84 -51 -6 -97 -7 -103 -4 -7 4 -8 30 -4 73 4 36 9 95 12 131 l6 65 -324 323 c-178 177 -329 322 -335 322 -6 0 -40 13 -75 29 -35 16 -101 45 -147 64 l-85 35 -285 284 c-353 350 -536 528 -543 528 -3 0 -12 -10 -20 -22z m112 -604 c0 -25 103 -271 163 -390 152 -304 253 -426 844 -1028 178 -181 323 -334 323 -340 0 -14 -91 -106 -105 -106 -19 0 -816 809 -897 910 -155 195 -279 465 -344 750 -22 99 -32 229 -17 243 7 8 32 -22 33 -39z"/>
<path d="M3007 1756 c-163 -162 -297 -300 -297 -308 0 -7 218 -231 484 -498 360 -360 486 -493 491 -515 37 -167 148 -314 288 -383 113 -54 108 -53 243 -49 193 5 254 29 375 147 59 58 85 93 113 151 20 42 36 85 36 97 0 11 5 24 10 27 12 8 13 176 1 207 -5 13 -15 43 -22 68 -38 127 -145 252 -268 313 -40 20 -81 37 -90 37 -25 0 -83 40 -153 104 -34 32 -252 247 -483 477 -232 231 -423 419 -426 419 -2 0 -138 -132 -302 -294z m1308 -1015 c81 -36 142 -140 133 -224 -21 -181 -222 -278 -361 -173 -125 93 -127 290 -5 374 24 16 52 32 63 35 47 11 132 6 170 -12z"/>
</g>
</svg>