<svg xmlns="http://www.w3.org/2000/svg" version="1.0" preserveAspectRatio="xMidYMid meet" viewBox="106.04 166.43 286.52 166.82">

<g transform="translate(0.000000,500.000000) scale(0.100000,-0.100000)" fill="#000000" stroke="none">
<path d="M2730 3310 c-89 -79 -196 -130 -270 -130 -37 0 -135 53 -197 106 -53 45 -56 47 -106 41 -65 -7 -219 -52 -272 -79 -25 -12 -67 -54 -112 -108 -70 -86 -74 -89 -130 -101 -46 -9 -72 -9 -128 1 -38 7 -91 13 -117 13 -48 0 -38 6 -260 -145 -32 -21 -62 -47 -68 -57 -13 -26 -13 -160 1 -219 52 -223 154 -377 299 -450 53 -26 62 -27 205 -27 139 -1 154 -3 187 -23 39 -24 78 -91 78 -134 0 -30 -45 -92 -80 -109 -14 -6 -62 -14 -107 -17 -78 -4 -81 -6 -86 -30 -8 -39 1 -50 51 -65 86 -27 297 -68 467 -92 336 -46 999 3 1292 97 66 21 83 41 64 77 -9 16 -18 19 -45 14 -45 -7 -134 13 -173 40 -40 27 -53 55 -53 113 0 53 19 86 68 116 32 19 51 22 156 23 136 2 198 17 281 70 101 64 182 182 226 325 28 90 33 254 10 308 -15 35 -69 75 -228 167 l-82 47 -64 -17 c-45 -12 -90 -16 -154 -14 -84 4 -94 6 -130 35 -21 17 -54 54 -73 82 -51 74 -73 87 -208 126 -181 52 -200 53 -242 16z m-483 -136 c62 -30 112 -83 152 -163 102 -200 25 -446 -159 -514 -59 -22 -103 -21 -162 1 -107 40 -180 119 -222 240 -25 71 -19 225 12 294 69 156 228 215 379 142z m704 25 c242 -82 268 -487 41 -649 -96 -69 -178 -80 -272 -38 -68 32 -111 76 -147 153 -25 53 -28 71 -28 160 0 110 19 170 82 259 71 101 214 151 324 115z m651 -229 c135 -38 227 -219 200 -394 -20 -128 -106 -250 -208 -296 -73 -34 -166 -31 -235 7 -190 103 -213 427 -44 597 85 84 185 114 287 86z m-2024 -36 c106 -53 178 -147 208 -274 19 -78 17 -138 -6 -211 -42 -135 -133 -209 -256 -209 -112 0 -209 59 -273 167 -90 152 -94 314 -12 442 31 47 101 102 147 114 61 15 123 6 192 -29z m1092 -500 c53 -21 75 -24 202 -24 157 0 193 -10 232 -62 26 -36 24 -114 -4 -202 -74 -228 -280 -358 -590 -373 -265 -12 -456 87 -578 300 -32 55 -62 150 -62 193 0 41 31 98 61 115 11 6 93 14 182 18 138 7 169 12 212 32 97 45 239 46 345 3z"/>
</g>
</svg>