<svg xmlns="http://www.w3.org/2000/svg" version="1.0" preserveAspectRatio="xMidYMid meet" viewBox="23 24 153.71 151.93">

<g transform="translate(0.000000,200.000000) scale(0.100000,-0.100000)" fill="#000000" stroke="none">
<path d="M537 1722 c-29 -29 -34 -41 -25 -50 9 -9 18 -6 38 13 l26 25 54 -55 55 -55 -145 -145 -145 -145 -54 55 -55 54 24 26 c18 19 21 28 12 37 -9 9 -21 3 -52 -27 l-40 -39 67 -68 67 -67 -22 -24 c-12 -13 -22 -29 -22 -37 0 -15 161 -187 197 -210 21 -13 25 -12 52 14 27 26 32 27 48 15 61 -48 700 -598 711 -611 7 -9 17 -42 22 -74 7 -46 16 -65 40 -86 55 -50 68 -43 233 121 135 134 149 151 143 175 -6 25 -9 26 -69 24 -101 -3 -146 44 -134 136 8 56 -3 65 -73 63 -93 -2 -139 48 -126 136 9 56 -7 72 -62 62 -87 -14 -144 41 -140 134 2 37 -3 55 -16 70 -11 12 -15 21 -10 21 5 0 -27 36 -70 79 -44 44 -84 79 -89 78 -5 -1 -14 6 -20 15 -9 14 -7 22 11 41 12 13 22 30 22 38 0 22 -192 209 -215 209 -10 0 -29 -10 -42 -22 l-24 -22 -67 67 -68 67 -37 -38z m318 -192 l70 -70 -198 -197 -197 -198 -70 70 c-38 38 -70 74 -70 80 0 13 372 385 385 385 6 0 42 -32 80 -70z"/>
<path d="M580 1405 l-185 -185 70 -70 70 -70 187 187 188 188 -67 67 c-37 38 -70 68 -73 68 -3 0 -88 -83 -190 -185z"/>
<path d="M443 1647 c-46 -11 -51 -18 -28 -37 24 -20 18 -27 -27 -34 l-43 -7 30 -24 29 -24 -34 -16 c-35 -15 -35 -15 30 -9 36 4 67 8 69 10 2 2 -3 12 -12 22 -21 23 -13 32 27 32 l31 1 -35 30 -35 30 25 19 c14 11 23 19 20 19 -3 -1 -24 -6 -47 -12z"/>
<path d="M1072 1303 c71 -71 79 -76 94 -62 14 15 9 22 -69 78 -47 33 -89 61 -93 61 -5 0 26 -35 68 -77z"/>
</g>
</svg>